<svg width="24" height="24" viewBox="0 0 24 24" fill="none" xmlns="http://www.w3.org/2000/svg">
<path fill-rule="evenodd" clip-rule="evenodd" d="M17.5652 16.1657L24 22.5999L22.5998 24L16.165 17.5658C14.4584 18.9623 12.277 19.8001 9.89989 19.8001C4.43233 19.8001 0 15.3677 0 9.90007C0 4.43242 4.43233 0 9.89989 0C15.3674 0 19.7998 4.43242 19.7998 9.90007C19.7998 12.2774 18.9618 14.459 17.5652 16.1657ZM9.89989 17.8201C14.2739 17.8201 17.8198 14.2742 17.8198 9.90007C17.8198 5.52594 14.2739 1.98001 9.89989 1.98001C5.52584 1.98001 1.97997 5.52594 1.97997 9.90007C1.97997 14.2742 5.52584 17.8201 9.89989 17.8201Z" fill="#808080"/>
</svg>
